<svg xmlns="http://www.w3.org/2000/svg" xmlns:xlink="http://www.w3.org/1999/xlink" viewBox="0 0 109.13 235.34"><defs><style>.cls-1{fill:none;}.cls-2{isolation:isolate;}.cls-3{fill:url(#linear-gradient);}.cls-4{fill:url(#linear-gradient-2);}.cls-5{fill:url(#linear-gradient-3);}.cls-6,.cls-7{mix-blend-mode:screen;}.cls-6{fill:url(#linear-gradient-4);}.cls-7{fill:url(#linear-gradient-5);}.cls-8{fill:url(#linear-gradient-6);}.cls-9{fill:url(#linear-gradient-7);}.cls-10{fill:url(#linear-gradient-8);}.cls-11{clip-path:url(#clip-path);}</style><linearGradient id="linear-gradient" x1="-730.66" y1="108.47" x2="-730.66" y2="69.54" gradientTransform="matrix(-1, 0, 0, 1, -728.78, -32.16)" gradientUnits="userSpaceOnUse"><stop offset="0" stop-color="gray"/><stop offset="0.01" stop-color="#727272"/><stop offset="0.06" stop-color="#4f4f4f"/><stop offset="0.1" stop-color="#323232"/><stop offset="0.15" stop-color="#1c1c1c"/><stop offset="0.2" stop-color="#0c0c0c"/><stop offset="0.26" stop-color="#030303"/><stop offset="0.34"/><stop offset="0.7"/><stop offset="0.75" stop-color="#050505"/><stop offset="0.8" stop-color="#131313"/><stop offset="0.86" stop-color="#2a2a2a"/><stop offset="0.92" stop-color="#4b4b4b"/><stop offset="0.98" stop-color="#747474"/><stop offset="1" stop-color="gray"/></linearGradient><linearGradient id="linear-gradient-2" x1="-730.66" y1="128.91" x2="-730.66" y2="112.95" xlink:href="#linear-gradient"/><linearGradient id="linear-gradient-3" x1="-840.56" y1="142.64" x2="-726.72" y2="142.64" gradientTransform="matrix(-1, 0, 0, 1, -728.78, -32.16)" gradientUnits="userSpaceOnUse"><stop offset="0" stop-color="#333"/><stop offset="0" stop-color="#323232"/><stop offset="0.03" stop-color="#1c1c1c"/><stop offset="0.06" stop-color="#0c0c0c"/><stop offset="0.1" stop-color="#030303"/><stop offset="0.15"/><stop offset="0.87"/><stop offset="0.91" stop-color="#050505"/><stop offset="0.95" stop-color="#131313"/><stop offset="0.99" stop-color="#2a2a2a"/><stop offset="1" stop-color="#333"/></linearGradient><linearGradient id="linear-gradient-4" x1="-784.37" y1="39.2" x2="-784.37" y2="31.37" gradientTransform="matrix(-1, 0, 0, 1, -702.93, 0)" gradientUnits="userSpaceOnUse"><stop offset="0"/><stop offset="0.16" stop-color="#050505"/><stop offset="0.34" stop-color="#131313"/><stop offset="0.53" stop-color="#2a2a2a"/><stop offset="0.74" stop-color="#4b4b4b"/><stop offset="0.95" stop-color="#747474"/><stop offset="1" stop-color="gray"/></linearGradient><linearGradient id="linear-gradient-5" x1="-2837.19" y1="-2307.38" x2="-2837.19" y2="-2315.21" gradientTransform="matrix(1, 0, 0, -1, 2918.63, -2061.37)" xlink:href="#linear-gradient-4"/><linearGradient id="linear-gradient-6" x1="85.47" y1="31.8" x2="85.47" y2="43.84" gradientUnits="userSpaceOnUse"><stop offset="0"/><stop offset="0.14" stop-color="#050505"/><stop offset="0.3" stop-color="#131313"/><stop offset="0.47" stop-color="#2a2a2a"/><stop offset="0.65" stop-color="#4b4b4b"/><stop offset="0.83" stop-color="#747474"/><stop offset="1" stop-color="#a1a1a1"/></linearGradient><linearGradient id="linear-gradient-7" x1="67.89" y1="35.72" x2="67.89" y2="42.33" xlink:href="#linear-gradient-6"/><linearGradient id="linear-gradient-8" x1="102.85" y1="35.72" x2="102.85" y2="42.33" xlink:href="#linear-gradient-6"/><clipPath id="clip-path" transform="translate(-25.85 -32.16)"><path class="cls-1" d="M41.45,45.67h79.09a9.61,9.61,0,0,1,9.79,9.42v180.5a9.61,9.61,0,0,1-9.79,9.42H41.45a9.61,9.61,0,0,1-9.79-9.42V55.08A9.61,9.61,0,0,1,41.45,45.67Z"/></clipPath></defs><title>phone1</title><g class="cls-2"><g id="Layer_1" data-name="Layer 1"><rect class="cls-3" y="37.39" width="3.76" height="38.92" rx="0.98" ry="0.98"/><rect class="cls-4" y="80.79" width="3.76" height="15.96" rx="0.98" ry="0.98"/><rect class="cls-5" x="0.05" width="109.09" height="220.96" rx="15.24" ry="15.24"/><path class="cls-6" d="M43.41,33.31h76.05A15.24,15.24,0,0,1,134.7,48.55v2.18a15.24,15.24,0,0,0-15.24-15.24H43.41A15.24,15.24,0,0,0,28.17,50.72V48.55A15.24,15.24,0,0,1,43.41,33.31Z" transform="translate(-25.85 -32.16)"/><path class="cls-7" d="M119.47,251.9H43.41a15.24,15.24,0,0,1-15.24-15.24v-2.18a15.24,15.24,0,0,0,15.24,15.24h76.05a15.24,15.24,0,0,0,15.24-15.24v2.18A15.24,15.24,0,0,1,119.47,251.9Z" transform="translate(-25.85 -32.16)"/><path class="cls-8" d="M97.88,40.45H73.06a.69.69,0,0,1-.69-.69h0a.69.69,0,0,1,.69-.69H97.88a.69.69,0,0,1,.69.69h0A.69.69,0,0,1,97.88,40.45Z" transform="translate(-25.85 -32.16)"/><path class="cls-9" d="M67.89,41a1.26,1.26,0,1,0-1.26-1.26A1.26,1.26,0,0,0,67.89,41Z" transform="translate(-25.85 -32.16)"/><path class="cls-10" d="M102.85,41a1.26,1.26,0,1,0-1.26-1.26A1.26,1.26,0,0,0,102.85,41Z" transform="translate(-25.85 -32.16)"/><g class="cls-11"><image width="309" height="722" transform="translate(3.39 13.51) scale(0.33 0.31)" xlink:href="../../../../4x/drawable-ldpi/do service.png"/></g></g></g></svg>